<?xml version="1.0" encoding="utf-8"?>
<!-- Generator: Adobe Illustrator 25.4.1, SVG Export Plug-In . SVG Version: 6.00 Build 0)  -->
<svg version="1.1" xmlns="http://www.w3.org/2000/svg" xmlns:xlink="http://www.w3.org/1999/xlink" x="0px" y="0px"
	 viewBox="0 0 376 376" style="enable-background:new 0 0 376 376;" xml:space="preserve">
<style type="text/css">
	.st0{display:none;}
	.st1{display:inline;fill:none;}
	.st2{display:inline;}
	.st3{clip-path:url(#SVGID_00000143575008101792705980000001589882816290573193_);}
	.st4{fill:#0000FF;}
	.st5{fill:#F2F238;}
</style>
<g id="Layer_1" xmlns:serif="http://www.serif.com/" class="st0">
	<path class="st1" d="M0,0h375.5v375.5H0V0z"/>
	<g class="st2">
		<defs>
			<rect id="SVGID_1_" y="0" width="375.5" height="375.5"/>
		</defs>
		<clipPath id="SVGID_00000081613543035579053930000010971151312520151458_">
			<use xlink:href="#SVGID_1_"  style="overflow:visible;"/>
		</clipPath>
		<g style="clip-path:url(#SVGID_00000081613543035579053930000010971151312520151458_);">
			<path class="st4" d="M188.8,149.2c-1.5-2.7-1.4-6.1,0.3-8.7l51.4-80.7h-47.7l-67.2,119.5h42c2.9,0,5.5,1.4,7.1,3.8
				c1.6,2.4,1.9,5.4,0.8,8l-36.1,87L246,153.6h-49.7C193.2,153.6,190.3,151.9,188.8,149.2z"/>
			<path class="st4" d="M187.7,0C84.2,0,0,84.2,0,187.7c0,103.5,84.2,187.7,187.7,187.7c103.5,0,187.7-84.2,187.7-187.7
				C375.5,84.2,291.2,0,187.7,0z M271,150.6L117.4,329.8c-1.7,2-4.1,3-6.5,3c-1.5,0-3.1-0.4-4.5-1.3c-3.6-2.2-5-6.7-3.4-10.5
				l51.7-124.7h-43.8c-3,0-5.8-1.6-7.4-4.2c-1.5-2.6-1.6-5.8-0.1-8.5L180.3,47c1.5-2.7,4.4-4.3,7.4-4.3H256c3.1,0,6,1.7,7.5,4.4
				c1.5,2.7,1.4,6.1-0.3,8.7l-51.4,80.8h52.7c3.3,0,6.4,1.9,7.7,5C273.7,144.5,273.2,148.1,271,150.6L271,150.6z"/>
		</g>
	</g>
</g>
<g id="Layer_3">
	<g id="Layer_2">
		<circle class="st5" cx="187.8" cy="187.8" r="185.8"/>
	</g>
	
		<image style="overflow:visible;" width="300" height="280" xlink:href="paskafest2025-karpanen.png"  transform="matrix(1.2917 0 0 1.2917 -11.5914 9.8863)">
	</image>
</g>
</svg>
